# xmcd
#
# Track frame offsets:
#	150
#	13858
#	27554
#	38987
#	49313
#	62284
#	74152
#	89886
#	101558
#	114261
#
# Disc length: 1669 seconds
#
# Revision: 0
# Processed by: cddbd v1.5.1PL2 Copyright (c) Steve Scherf et al.
# Submitted via: EasyCDDAExtractor 9.0.0.1
#
DISCID=8f06830a
DTITLE=Dolly Parton - Joshua
DYEAR=1971
DGENRE=Country
TTITLE0=Joshua
TTITLE1=The Last One To Touch Me
TTITLE2=Walls Of The Mind
TTITLE3=It Ain't Fair That It Ain't Right
TTITLE4=J.j. Sneed
TTITLE5=You Can't Reach Me Anymore
TTITLE6=Daddy's Moonshine Still
TTITLE7=Chicken Every Sunday
TTITLE8=The Fire's Still Burning
TTITLE9=Letter To Heaven
EXTD=
EXTT0=
EXTT1=
EXTT2=
EXTT3=
EXTT4=
EXTT5=
EXTT6=
EXTT7=
EXTT8=
EXTT9=
PLAYORDER=
